<svg id="Calque_1" data-name="Calque 1" xmlns="http://www.w3.org/2000/svg" viewBox="0 0 50 25"><defs><style>.cls-1{fill:#fff;}.cls-2{fill:red;}</style></defs><title>Plan de travail 1</title><rect class="cls-1" x="0.5" y="0.5" width="49" height="24" rx="0.59"/><path d="M48.91,1a.09.09,0,0,1,.09.09V23.91a.09.09,0,0,1-.09.09H1.09A.09.09,0,0,1,1,23.91V1.09A.09.09,0,0,1,1.09,1H48.91m0-1H1.09A1.09,1.09,0,0,0,0,1.09V23.91A1.09,1.09,0,0,0,1.09,25H48.91A1.09,1.09,0,0,0,50,23.91V1.09A1.09,1.09,0,0,0,48.91,0Z"/><rect class="cls-1" x="2.5" y="2.5" width="45" height="20" rx="0.47"/><path class="cls-2" d="M47,3l0,19L3,22,3,3H47m0-1H3A1,1,0,0,0,2,3V22a1,1,0,0,0,1,1H47a1,1,0,0,0,1-1V3a1,1,0,0,0-1-1Z"/><path d="M11,16.19a.71.71,0,0,1,.72-.75.76.76,0,0,1,0,1.51A.71.71,0,0,1,11,16.19Z"/><path d="M19.37,16.55a5.16,5.16,0,0,1-2.13.39,3.78,3.78,0,0,1-4-4.09A4,4,0,0,1,17.46,8.6,4.37,4.37,0,0,1,19.38,9l-.25.85a3.82,3.82,0,0,0-1.63-.33,3,3,0,0,0-3.15,3.33,2.93,2.93,0,0,0,3.1,3.25,4.1,4.1,0,0,0,1.71-.34Z"/><path d="M27.34,12.69c0,2.78-1.69,4.26-3.76,4.26S20,15.29,20,12.85,21.55,8.6,23.7,8.6,27.34,10.29,27.34,12.69Zm-6.27.13c0,1.73.93,3.28,2.57,3.28s2.59-1.53,2.59-3.36c0-1.61-.83-3.29-2.57-3.29S21.07,11.05,21.07,12.82Z"/><path d="M35.51,13.27c-.06-1.13-.13-2.49-.12-3.49h0c-.27.94-.61,2-1,3.07l-1.42,3.92h-.79l-1.31-3.85c-.39-1.14-.71-2.18-.94-3.14h0c0,1-.09,2.36-.16,3.57l-.21,3.47h-1l.57-8.09h1.33l1.38,3.91c.33,1,.61,1.89.81,2.73h0c.2-.82.49-1.71.85-2.73L34.9,8.73h1.33l.5,8.09h-1Z"/></svg>